<svg xmlns="http://www.w3.org/2000/svg" 
aria-hidden="true"
 style="position:absolute;width:0;height:0;overflow:hidden">
 <defs>
 <symbol id="icon-search" viewBox="0 0 32 32">
 <path d="m31.008 27.231-7.58-6.447c-.784-.705-1.622-1.029-2.299-.998a11.954 11.954 0 0 0 2.87-7.787c0-6.627-5.373-12-12-12s-12 5.373-12 12 5.373 12 12 12c2.972 0 5.691-1.081 7.787-2.87-.031.677.293 1.515.998 2.299l6.447 7.58c1.104 1.226 2.907 1.33 4.007.23s.997-2.903-.23-4.007zM12 20a8 8 0 1 1 0-16 8 8 0 0 1 0 16z"/>
 </symbol>
<symbol id="icon-download" viewBox="0 0 32 32">
<path d="M28 16h-5l-7 7-7-7H4l-4 8v2h32v-2l-4-8zM0 28h32v2H0v-2zm18-18V2h-4v8H7l9 9 9-9h-7z"/>
</symbol>
</defs>
</svg>